<svg xmlns="http://www.w3.org/2000/svg" xmlns:xlink="http://www.w3.org/1999/xlink" viewBox="754.678 1245.373 312.576 312.576">
  <defs>
    <style>
      .cls-1 {
        fill: none;
      }

      .cls-2 {
        clip-path: url(#clip-path);
      }

      .cls-3 {
        fill: #eee;
      }

      .cls-4 {
        fill: #1e1f20;
      }

      .cls-5 {
        fill: #1f8eea;
      }

      .cls-6 {
        fill: #f11155;
      }

      .cls-7 {
        fill: #252a2c;
      }
    </style>
    <clipPath id="clip-path">
      <path id="Path_3702" data-name="Path 3702" class="cls-1" d="M0-225.841H159.638V56.57H0Z" transform="translate(0 225.841)"/>
    </clipPath>
  </defs>
  <g id="Group_3930" data-name="Group 3930" transform="translate(954.373 1245.373) rotate(45)">
    <g id="Group_3929" data-name="Group 3929" class="cls-2">
      <g id="Group_3893" data-name="Group 3893" transform="translate(35.042 0.001)">
        <path id="Path_3665" data-name="Path 3665" class="cls-3" d="M18.18,32.016A243.579,243.579,0,0,0,20.062,1.655c0-56-18.746-104.667-46.321-129.469-27.574,24.8-46.321,73.472-46.321,129.469A243.339,243.339,0,0,0-70.7,32.016Z" transform="translate(72.579 127.814)"/>
      </g>
      <g id="Group_3894" data-name="Group 3894" transform="translate(119.96 149.715)">
        <path id="Path_3666" data-name="Path 3666" class="cls-4" d="M.218.245H-.872V-.911H-.8L-.8-.979.352-.835Z" transform="translate(0.872 0.979)"/>
      </g>
      <g id="Group_3895" data-name="Group 3895" transform="translate(87.192 15.349)">
        <path id="Path_3667" data-name="Path 3667" class="cls-4" d="M.156.331Q-.231-.112-.622-.547l.859-.775q.4.443.792.893ZM5.988,7.7c-.23-.319-.459-.635-.69-.95l.93-.687c.236.318.468.639.7.962Zm5.161,7.869-.61-1.008.988-.6.614,1.015Zm4.534,8.251q-.266-.527-.535-1.048l1.03-.531c.18.351.361.7.538,1.059Zm3.953,8.548q-.229-.542-.463-1.082l1.062-.461q.236.546.469,1.093Zm3.415,8.785-.4-1.11,1.09-.393.4,1.115Zm2.9,8.97c-.111-.378-.221-.754-.336-1.129l1.108-.335c.115.379.228.758.339,1.139Zm2.418,9.114-.278-1.148,1.125-.271.278,1.152Zm1.952,9.226-.22-1.158,1.137-.219.221,1.164Zm1.508,9.311-.165-1.168,1.147-.164.165,1.173ZM32.9,87.147l-.11-1.174,1.152-.113.111,1.18Zm.657,9.411-.06-1.179,1.155-.06.06,1.183Zm.241,9.43-.008-1.178,1.158-.014.008,1.188Zm.994,9.479-1.158-.046.044-1.177,1.157.036Zm-.576,9.465-1.153-.1.094-1.173,1.153.086Z" transform="translate(0.622 1.322)"/>
      </g>
      <g id="Group_3896" data-name="Group 3896" transform="translate(80.547 8.675)">
        <path id="Path_3668" data-name="Path 3668" class="cls-4" d="M.17.319.135.286.1.319-.252-.065h0L-.68-.536l.815-.737.814.737-.428.47h0Z" transform="translate(0.68 1.273)"/>
      </g>
      <g id="Group_3897" data-name="Group 3897" transform="translate(39.949 15.332)">
        <path id="Path_3669" data-name="Path 3669" class="cls-4" d="M6.975.331,6.1-.432q.394-.45.789-.89l.862.773c-.261.291-.52.585-.78.88M1.142,7.7.2,7.025c.233-.323.464-.644.7-.962l.932.687q-.347.471-.692.95m-5.161,7.866-1-.594q.306-.51.616-1.017l.987.605c-.205.334-.408.668-.608,1.005m-4.539,8.252L-9.59,23.3l.539-1.058,1.028.529Zm-3.954,8.55-1.065-.453.468-1.09,1.062.459Zm-3.411,8.782-1.093-.385c.134-.374.266-.747.4-1.118l1.087.4q-.2.551-.4,1.108m-2.906,8.971-1.109-.328.336-1.137,1.108.333Zm-2.416,9.111-1.127-.266.278-1.154,1.123.276ZM-23.2,68.458l-1.137-.211.221-1.165,1.137.219Zm-1.508,9.31-1.147-.155.165-1.177,1.147.166Zm-1.077,9.371-1.153-.106.111-1.179,1.153.113Zm-.657,9.411L-27.6,96.5l.058-1.184,1.155.06Zm-.244,9.431-1.158-.007.009-1.182,1.157.01Zm-1,9.475-.043-1.183,1.158-.04.043,1.18Zm.576,9.469-.094-1.183,1.153-.089.094,1.175Z" transform="translate(27.846 1.322)"/>
      </g>
      <g id="Group_3898" data-name="Group 3898" transform="translate(41.54 149.715)">
        <path id="Path_3670" data-name="Path 3670" class="cls-4" d="M.245.245H-.844L-.979-.835.169-.979l.008.068H.245Z" transform="translate(0.979 0.979)"/>
      </g>
      <path id="Path_3671" data-name="Path 3671" class="cls-4" d="M42.282-104.905H41.057v-1.157h1.225Zm9.8,0H50.861v-1.157h1.224Zm9.8,0H60.663v-1.157h1.224Zm9.8,0H70.466v-1.157h1.225Zm9.8,0H80.269v-1.157h1.225Zm9.8,0H90.071v-1.157H91.3Zm9.8,0H99.874v-1.157H101.1Z" transform="translate(10.284 255.844)"/>
      <g id="Group_3899" data-name="Group 3899" transform="translate(66.821 48.089)">
        <path id="Path_3672" data-name="Path 3672" class="cls-5" d="M5.169,2.584a12.9,12.9,0,0,1-12.9,12.9,12.9,12.9,0,0,1-12.9-12.9,12.9,12.9,0,0,1,12.9-12.9,12.9,12.9,0,0,1,12.9,12.9" transform="translate(20.634 10.317)"/>
      </g>
      <g id="Group_3900" data-name="Group 3900" transform="translate(118.755 101.896)">
        <path id="Path_3673" data-name="Path 3673" class="cls-6" d="M8.189,10.1l-40.883,1.162V-40.305L8.189-2.587Z" transform="translate(32.694 40.305)"/>
      </g>
      <g id="Group_3901" data-name="Group 3901" transform="translate(0 101.896)">
        <path id="Path_3674" data-name="Path 3674" class="cls-6" d="M0,10.1l40.883,1.162V-40.305L0-2.587Z" transform="translate(0 40.305)"/>
      </g>
      <g id="Group_3902" data-name="Group 3902" transform="translate(77.083 168.51)">
        <path id="Path_3675" data-name="Path 3675" class="cls-7" d="M1.152.6l-.11-1.763C1.03-1.394,1.03-1.681,1.02-2H.987c-.076.265-.165.618-.253.893L.194.556H-.423l-.54-1.708c-.054-.23-.143-.583-.209-.848h-.034c0,.275-.011.561-.021.837L-1.337.6h-.573l.221-3H-.8L-.28-.932c.066.231.121.453.2.76h.01C.006-.446.074-.7.138-.92L.657-2.4h.859l.231,3Zm-3.238-3v.5h-.958V.6h-.6V-1.9H-4.6v-.5Z" transform="translate(4.598 2.396)"/>
      </g>
      <g id="Group_3903" data-name="Group 3903" transform="translate(77.403 181.635)">
        <path id="Path_3676" data-name="Path 3676" class="cls-7" d="M.391.942a6.8,6.8,0,0,1,1.255.529A1.015,1.015,0,0,0,2.065.623C2.065.2,1.8-.148,1.085-.4A9.629,9.629,0,0,1-.27-.962,1.02,1.02,0,0,0-.776-.1c0,.4.3.727,1.167,1.045M2.165-2.769A2.5,2.5,0,0,0,.842-3.122C.193-3.122-.3-2.8-.3-2.307c0,.573.551.782,1.378,1.058C2.086-.919,2.869-.5,2.869.491a1.625,1.625,0,0,1-.717,1.333,1.307,1.307,0,0,1,.419.969C2.571,3.95,1.5,4.445.479,4.445A2.987,2.987,0,0,1-1.25,3.982l.264-.628a2.627,2.627,0,0,0,1.454.451c.7,0,1.234-.319,1.234-.9,0-.518-.32-.793-1.344-1.145C-.776,1.372-1.559.965-1.559.017a1.554,1.554,0,0,1,.8-1.288A1.3,1.3,0,0,1-1.161-2.2c0-.969.9-1.564,2.037-1.564A3.167,3.167,0,0,1,2.4-3.4Z" transform="translate(1.559 3.761)"/>
      </g>
      <g id="Group_3904" data-name="Group 3904" transform="translate(77.128 194.937)">
        <path id="Path_3677" data-name="Path 3677" class="cls-7" d="M.432,1.6V-1.848H.355A2.112,2.112,0,0,1-1.726-3.963c0-1.134.616-2.423,3.029-2.423a6.04,6.04,0,0,1,1.289.1V1.6H1.908V-5.714H1.126V1.6Z" transform="translate(1.726 6.386)"/>
      </g>
      <g id="Group_3905" data-name="Group 3905" transform="translate(77.138 207.644)">
        <path id="Path_3678" data-name="Path 3678" class="cls-7" d="M.565.205A.569.569,0,0,0-.008-.4a.564.564,0,0,0-.54.628.583.583,0,0,0,.54.594A.579.579,0,0,0,.565.205M-1.11.228A1.041,1.041,0,0,1,.015-.819,1.022,1.022,0,0,1,1.106.215,1.033,1.033,0,0,1,0,1.229a1.029,1.029,0,0,1-1.114-1m2.082,4.2c-1.058-.023-2.257.165-2.257,1.2a.857.857,0,0,0,.914.925A1.325,1.325,0,0,0,.917,5.657a1,1,0,0,0,.055-.309Zm.143,2.721-.076-.672H1.006a1.989,1.989,0,0,1-1.631.793A1.52,1.52,0,0,1-2.255,5.734c0-1.288,1.145-1.993,3.206-1.982v-.11A1.1,1.1,0,0,0-.26,2.407a2.67,2.67,0,0,0-1.389.4l-.219-.638A3.3,3.3,0,0,1-.118,1.692c1.631,0,2.027,1.112,2.027,2.181V5.866A7.489,7.489,0,0,0,2,7.144Z" transform="translate(2.255 0.819)"/>
      </g>
      <g id="Group_3906" data-name="Group 3906" transform="translate(77.128 221.386)">
        <path id="Path_3679" data-name="Path 3679" class="cls-7" d="M.432,1.6V-1.848H.355A2.112,2.112,0,0,1-1.726-3.963c0-1.134.616-2.423,3.029-2.423a6.04,6.04,0,0,1,1.289.1V1.6H1.908V-5.714H1.126V1.6Z" transform="translate(1.726 6.386)"/>
      </g>
      <g id="Group_3907" data-name="Group 3907" transform="translate(82.505 220.075)">
        <path id="Path_3680" data-name="Path 3680" class="cls-7" d="M.629.139A1.58,1.58,0,0,0,.3.1.612.612,0,0,0-.209.338,2.851,2.851,0,0,0-.54,2.077c0,1.6.134,3.514.134,5.177A3.5,3.5,0,0,1-.869,9.325a1.237,1.237,0,0,1-1.047.529,1.491,1.491,0,0,1-.6-.1l.133-.638a1.173,1.173,0,0,0,.385.065.594.594,0,0,0,.484-.231,2.632,2.632,0,0,0,.341-1.7c0-1.663-.131-3.624-.131-5.242A2.988,2.988,0,0,1-.727-.147a1.281,1.281,0,0,1,.98-.408,1.429,1.429,0,0,1,.5.078Z" transform="translate(2.511 0.555)"/>
      </g>
      <g id="Group_3908" data-name="Group 3908" transform="translate(77.138 234.093)">
        <path id="Path_3681" data-name="Path 3681" class="cls-7" d="M.565.205A.57.57,0,0,0-.008-.4a.564.564,0,0,0-.54.628.582.582,0,0,0,.54.594A.579.579,0,0,0,.565.205M-1.11.228A1.041,1.041,0,0,1,.015-.819,1.022,1.022,0,0,1,1.106.216,1.033,1.033,0,0,1,0,1.229a1.029,1.029,0,0,1-1.114-1m2.082,4.2c-1.058-.023-2.257.165-2.257,1.2a.857.857,0,0,0,.914.925A1.325,1.325,0,0,0,.917,5.657a.993.993,0,0,0,.055-.309Zm.143,2.72-.076-.672H1.006a1.989,1.989,0,0,1-1.631.793A1.52,1.52,0,0,1-2.255,5.734c0-1.288,1.145-1.993,3.206-1.982v-.11A1.1,1.1,0,0,0-.26,2.407a2.659,2.659,0,0,0-1.389.4l-.219-.639A3.306,3.306,0,0,1-.118,1.692c1.631,0,2.027,1.113,2.027,2.181V5.866A7.489,7.489,0,0,0,2,7.144Z" transform="translate(2.255 0.819)"/>
      </g>
      <g id="Group_3909" data-name="Group 3909" transform="translate(76.863 246.523)">
        <path id="Path_3682" data-name="Path 3682" class="cls-7" d="M.629.139A1.558,1.558,0,0,0,.3.1.607.607,0,0,0-.208.338,2.846,2.846,0,0,0-.539,2.077c0,1.6.134,3.514.134,5.177A3.5,3.5,0,0,1-.868,9.325a1.24,1.24,0,0,1-1.047.529,1.491,1.491,0,0,1-.6-.1l.133-.638a1.167,1.167,0,0,0,.385.065.6.6,0,0,0,.484-.231,2.632,2.632,0,0,0,.341-1.7c0-1.663-.131-3.624-.131-5.242A2.988,2.988,0,0,1-.726-.147,1.28,1.28,0,0,1,.254-.555a1.432,1.432,0,0,1,.5.078Z" transform="translate(2.51 0.555)"/>
      </g>
      <g id="Group_3910" data-name="Group 3910" transform="translate(80.522 247.284)">
        <path id="Path_3683" data-name="Path 3683" class="cls-7" d="M.825.991A1.694,1.694,0,0,0-.728-.067a1.746,1.746,0,0,0-1.6,1.894c0,.969.53,1.542,1.3,1.542.99,0,1.7-1.123,1.849-2.378M-2.943-3.371a3.134,3.134,0,0,1,1.907-.584c1.521,0,2.9,1.366,2.9,3.9,0,2.8-1.409,4.219-2.962,4.219A2.149,2.149,0,0,1-3.294,1.85,2.537,2.537,0,0,1-.882-.838,2.062,2.062,0,0,1,.913.12H.924C.935.01.935-.122.935-.244c0-1.938-1.024-2.919-2.06-2.919a2.579,2.579,0,0,0-1.509.441Z" transform="translate(3.294 3.955)"/>
      </g>
      <g id="Group_3911" data-name="Group 3911" transform="translate(77.173 263.052)">
        <path id="Path_3684" data-name="Path 3684" class="cls-7" d="M1.553.452A1.358,1.358,0,0,0,.254-1.1,1.528,1.528,0,0,0-1.168.452ZM-5.221.991c0,1.157.662,2.05,1.587,2.05S-2.07,2.2-2.07.98c0-1.013-.464-2.06-1.564-2.06C-4.8-1.079-5.221.077-5.221.991m4.053.155A1.7,1.7,0,0,0,.605,3.007a3.345,3.345,0,0,0,1.433-.3l.175.694a3.9,3.9,0,0,1-1.728.364,2.176,2.176,0,0,1-2.1-1.255h-.034a2.205,2.205,0,0,1-2.06,1.255A2.512,2.512,0,0,1-6.2,1.014a2.582,2.582,0,0,1,2.555-2.82A2.093,2.093,0,0,1-1.631-.528h.023A2.077,2.077,0,0,1,.33-1.806,2.251,2.251,0,0,1,2.49.694a2.57,2.57,0,0,1-.033.453Z" transform="translate(6.2 1.806)"/>
      </g>
      <g id="Group_3912" data-name="Group 3912" transform="translate(77.403 274.206)">
        <path id="Path_3685" data-name="Path 3685" class="cls-7" d="M.391.942a6.8,6.8,0,0,1,1.255.529A1.017,1.017,0,0,0,2.065.623C2.065.2,1.8-.148,1.085-.4A9.629,9.629,0,0,1-.27-.962,1.02,1.02,0,0,0-.776-.1c0,.4.3.727,1.167,1.045M2.165-2.769A2.5,2.5,0,0,0,.842-3.122C.193-3.122-.3-2.8-.3-2.307c0,.571.551.782,1.378,1.057C2.086-.919,2.869-.5,2.869.491a1.625,1.625,0,0,1-.717,1.333,1.307,1.307,0,0,1,.419.969C2.571,3.95,1.5,4.445.479,4.445A2.987,2.987,0,0,1-1.25,3.982l.264-.628a2.627,2.627,0,0,0,1.454.451c.7,0,1.234-.319,1.234-.9,0-.518-.32-.793-1.344-1.145C-.776,1.372-1.559.965-1.559.017a1.558,1.558,0,0,1,.8-1.289A1.292,1.292,0,0,1-1.161-2.2c0-.969.9-1.564,2.037-1.564A3.153,3.153,0,0,1,2.4-3.4Z" transform="translate(1.559 3.761)"/>
      </g>
      <g id="Group_3913" data-name="Group 3913" transform="translate(95.617 165.67)">
        <path id="Path_3686" data-name="Path 3686" class="cls-7" d="M1.152.6l-.11-1.763C1.03-1.394,1.03-1.681,1.02-2H.987c-.076.265-.165.618-.253.893L.194.556H-.423l-.54-1.708c-.054-.23-.143-.583-.209-.848h-.034c0,.275-.011.561-.021.837L-1.337.6h-.573l.221-3H-.8L-.28-.932c.066.231.121.453.2.76h.01C.006-.446.074-.7.138-.92L.657-2.4h.859l.231,3Zm-3.238-3v.5h-.958V.6h-.6V-1.9H-4.6v-.5Z" transform="translate(4.598 2.396)"/>
      </g>
      <g id="Group_3914" data-name="Group 3914" transform="translate(95.936 178.795)">
        <path id="Path_3687" data-name="Path 3687" class="cls-7" d="M.391.942a6.8,6.8,0,0,1,1.255.529A1.015,1.015,0,0,0,2.065.623C2.065.2,1.8-.148,1.085-.4A9.629,9.629,0,0,1-.27-.962,1.02,1.02,0,0,0-.776-.1c0,.4.3.727,1.167,1.045M2.165-2.769A2.5,2.5,0,0,0,.842-3.122C.193-3.122-.3-2.8-.3-2.307c0,.573.551.782,1.378,1.058C2.086-.919,2.869-.5,2.869.491a1.625,1.625,0,0,1-.717,1.333,1.307,1.307,0,0,1,.419.969C2.571,3.95,1.5,4.445.479,4.445A2.987,2.987,0,0,1-1.25,3.982l.264-.628a2.627,2.627,0,0,0,1.454.451c.7,0,1.234-.319,1.234-.9,0-.518-.32-.793-1.344-1.145C-.776,1.372-1.559.965-1.559.017a1.554,1.554,0,0,1,.8-1.288A1.3,1.3,0,0,1-1.161-2.2c0-.969.9-1.564,2.037-1.564A3.167,3.167,0,0,1,2.4-3.4Z" transform="translate(1.559 3.761)"/>
      </g>
      <g id="Group_3915" data-name="Group 3915" transform="translate(95.662 192.097)">
        <path id="Path_3688" data-name="Path 3688" class="cls-7" d="M.432,1.6V-1.848H.355A2.112,2.112,0,0,1-1.726-3.963c0-1.134.616-2.423,3.029-2.423a6.04,6.04,0,0,1,1.289.1V1.6H1.908V-5.714H1.126V1.6Z" transform="translate(1.726 6.386)"/>
      </g>
      <g id="Group_3916" data-name="Group 3916" transform="translate(95.672 204.804)">
        <path id="Path_3689" data-name="Path 3689" class="cls-7" d="M.565.205A.569.569,0,0,0-.008-.4a.564.564,0,0,0-.54.628.583.583,0,0,0,.54.594A.579.579,0,0,0,.565.205M-1.11.228A1.041,1.041,0,0,1,.015-.819,1.022,1.022,0,0,1,1.106.215,1.033,1.033,0,0,1,0,1.229a1.029,1.029,0,0,1-1.114-1m2.082,4.2c-1.058-.023-2.257.165-2.257,1.2a.857.857,0,0,0,.914.925A1.325,1.325,0,0,0,.917,5.657a1,1,0,0,0,.055-.309Zm.143,2.721-.076-.672H1.006a1.989,1.989,0,0,1-1.631.793A1.52,1.52,0,0,1-2.255,5.734c0-1.288,1.145-1.993,3.206-1.982v-.11A1.1,1.1,0,0,0-.26,2.407a2.67,2.67,0,0,0-1.389.4l-.219-.638A3.3,3.3,0,0,1-.118,1.692c1.631,0,2.027,1.112,2.027,2.181V5.866A7.489,7.489,0,0,0,2,7.144Z" transform="translate(2.255 0.819)"/>
      </g>
      <g id="Group_3917" data-name="Group 3917" transform="translate(95.662 218.546)">
        <path id="Path_3690" data-name="Path 3690" class="cls-7" d="M.432,1.6V-1.848H.355A2.112,2.112,0,0,1-1.726-3.963c0-1.134.616-2.423,3.029-2.423a6.04,6.04,0,0,1,1.289.1V1.6H1.908V-5.714H1.126V1.6Z" transform="translate(1.726 6.386)"/>
      </g>
      <g id="Group_3918" data-name="Group 3918" transform="translate(101.039 217.235)">
        <path id="Path_3691" data-name="Path 3691" class="cls-7" d="M.629.139A1.58,1.58,0,0,0,.3.1.612.612,0,0,0-.209.338,2.851,2.851,0,0,0-.54,2.077c0,1.6.134,3.514.134,5.177A3.5,3.5,0,0,1-.869,9.325a1.237,1.237,0,0,1-1.047.529,1.491,1.491,0,0,1-.6-.1l.133-.638a1.173,1.173,0,0,0,.385.065.594.594,0,0,0,.484-.231,2.632,2.632,0,0,0,.341-1.7c0-1.663-.131-3.624-.131-5.242A2.988,2.988,0,0,1-.727-.147a1.281,1.281,0,0,1,.98-.408,1.429,1.429,0,0,1,.5.078Z" transform="translate(2.511 0.555)"/>
      </g>
      <g id="Group_3919" data-name="Group 3919" transform="translate(95.672 231.253)">
        <path id="Path_3692" data-name="Path 3692" class="cls-7" d="M.565.205A.57.57,0,0,0-.008-.4a.564.564,0,0,0-.54.628.582.582,0,0,0,.54.594A.579.579,0,0,0,.565.205M-1.11.228A1.041,1.041,0,0,1,.015-.819,1.022,1.022,0,0,1,1.106.216,1.033,1.033,0,0,1,0,1.229a1.029,1.029,0,0,1-1.114-1m2.082,4.2c-1.058-.023-2.257.165-2.257,1.2a.857.857,0,0,0,.914.925A1.325,1.325,0,0,0,.917,5.657a.993.993,0,0,0,.055-.309Zm.143,2.72-.076-.672H1.006a1.989,1.989,0,0,1-1.631.793A1.52,1.52,0,0,1-2.255,5.734c0-1.288,1.145-1.993,3.206-1.982v-.11A1.1,1.1,0,0,0-.26,2.407a2.659,2.659,0,0,0-1.389.4l-.219-.639A3.306,3.306,0,0,1-.118,1.692c1.631,0,2.027,1.113,2.027,2.181V5.866A7.489,7.489,0,0,0,2,7.144Z" transform="translate(2.255 0.819)"/>
      </g>
      <g id="Group_3920" data-name="Group 3920" transform="translate(95.397 243.684)">
        <path id="Path_3693" data-name="Path 3693" class="cls-7" d="M.629.139A1.558,1.558,0,0,0,.3.1.607.607,0,0,0-.208.338,2.846,2.846,0,0,0-.539,2.077c0,1.6.134,3.514.134,5.177A3.5,3.5,0,0,1-.868,9.325a1.24,1.24,0,0,1-1.047.529,1.491,1.491,0,0,1-.6-.1l.133-.638a1.167,1.167,0,0,0,.385.065.6.6,0,0,0,.484-.231,2.632,2.632,0,0,0,.341-1.7c0-1.663-.131-3.624-.131-5.242A2.988,2.988,0,0,1-.726-.147,1.28,1.28,0,0,1,.254-.555a1.432,1.432,0,0,1,.5.078Z" transform="translate(2.51 0.555)"/>
      </g>
      <g id="Group_3921" data-name="Group 3921" transform="translate(99.056 244.444)">
        <path id="Path_3694" data-name="Path 3694" class="cls-7" d="M.825.991A1.694,1.694,0,0,0-.728-.067a1.746,1.746,0,0,0-1.6,1.894c0,.969.53,1.542,1.3,1.542.99,0,1.7-1.123,1.849-2.378M-2.943-3.371a3.134,3.134,0,0,1,1.907-.584c1.521,0,2.9,1.366,2.9,3.9,0,2.8-1.409,4.219-2.962,4.219A2.149,2.149,0,0,1-3.294,1.85,2.537,2.537,0,0,1-.882-.838,2.062,2.062,0,0,1,.913.12H.924C.935.01.935-.122.935-.244c0-1.938-1.024-2.919-2.06-2.919a2.579,2.579,0,0,0-1.509.441Z" transform="translate(3.294 3.955)"/>
      </g>
      <g id="Group_3922" data-name="Group 3922" transform="translate(95.707 260.212)">
        <path id="Path_3695" data-name="Path 3695" class="cls-7" d="M1.553.452A1.358,1.358,0,0,0,.254-1.1,1.528,1.528,0,0,0-1.168.452ZM-5.221.991c0,1.157.662,2.05,1.587,2.05S-2.07,2.2-2.07.98c0-1.013-.464-2.06-1.564-2.06C-4.8-1.079-5.221.077-5.221.991m4.053.155A1.7,1.7,0,0,0,.605,3.007a3.345,3.345,0,0,0,1.433-.3l.175.694a3.9,3.9,0,0,1-1.728.364,2.176,2.176,0,0,1-2.1-1.255h-.034a2.205,2.205,0,0,1-2.06,1.255A2.512,2.512,0,0,1-6.2,1.014a2.582,2.582,0,0,1,2.555-2.82A2.093,2.093,0,0,1-1.631-.528h.023A2.077,2.077,0,0,1,.33-1.806,2.251,2.251,0,0,1,2.49.694a2.57,2.57,0,0,1-.033.453Z" transform="translate(6.2 1.806)"/>
      </g>
      <g id="Group_3923" data-name="Group 3923" transform="translate(58.139 168.51)">
        <path id="Path_3696" data-name="Path 3696" class="cls-7" d="M1.152.6l-.11-1.763C1.03-1.394,1.03-1.681,1.02-2H.987c-.076.265-.165.618-.253.893L.194.556H-.423l-.54-1.708c-.054-.23-.143-.583-.209-.848h-.034c0,.275-.011.561-.021.837L-1.337.6h-.573l.221-3H-.8L-.28-.932c.066.231.121.453.2.76h.01C.006-.446.074-.7.138-.92L.657-2.4h.859l.231,3Zm-3.238-3v.5h-.958V.6h-.6V-1.9H-4.6v-.5Z" transform="translate(4.598 2.396)"/>
      </g>
      <g id="Group_3924" data-name="Group 3924" transform="translate(58.459 181.635)">
        <path id="Path_3697" data-name="Path 3697" class="cls-7" d="M.391.942a6.8,6.8,0,0,1,1.255.529A1.015,1.015,0,0,0,2.065.623C2.065.2,1.8-.148,1.085-.4A9.629,9.629,0,0,1-.27-.962,1.02,1.02,0,0,0-.776-.1c0,.4.3.727,1.167,1.045M2.165-2.769A2.5,2.5,0,0,0,.842-3.122C.193-3.122-.3-2.8-.3-2.307c0,.573.551.782,1.378,1.058C2.086-.919,2.869-.5,2.869.491a1.625,1.625,0,0,1-.717,1.333,1.307,1.307,0,0,1,.419.969C2.571,3.95,1.5,4.445.479,4.445A2.987,2.987,0,0,1-1.25,3.982l.264-.628a2.627,2.627,0,0,0,1.454.451c.7,0,1.234-.319,1.234-.9,0-.518-.32-.793-1.344-1.145C-.776,1.372-1.559.965-1.559.017a1.554,1.554,0,0,1,.8-1.288A1.3,1.3,0,0,1-1.161-2.2c0-.969.9-1.564,2.037-1.564A3.167,3.167,0,0,1,2.4-3.4Z" transform="translate(1.559 3.761)"/>
      </g>
      <g id="Group_3925" data-name="Group 3925" transform="translate(58.184 194.937)">
        <path id="Path_3698" data-name="Path 3698" class="cls-7" d="M.432,1.6V-1.848H.355A2.112,2.112,0,0,1-1.726-3.963c0-1.134.616-2.423,3.029-2.423a6.04,6.04,0,0,1,1.289.1V1.6H1.908V-5.714H1.126V1.6Z" transform="translate(1.726 6.386)"/>
      </g>
      <g id="Group_3926" data-name="Group 3926" transform="translate(58.194 207.644)">
        <path id="Path_3699" data-name="Path 3699" class="cls-7" d="M.565.205A.569.569,0,0,0-.008-.4a.564.564,0,0,0-.54.628.583.583,0,0,0,.54.594A.579.579,0,0,0,.565.205M-1.11.228A1.041,1.041,0,0,1,.015-.819,1.022,1.022,0,0,1,1.106.215,1.033,1.033,0,0,1,0,1.229a1.029,1.029,0,0,1-1.114-1m2.082,4.2c-1.058-.023-2.257.165-2.257,1.2a.857.857,0,0,0,.914.925A1.325,1.325,0,0,0,.917,5.657a1,1,0,0,0,.055-.309Zm.143,2.721-.076-.672H1.006a1.989,1.989,0,0,1-1.631.793A1.52,1.52,0,0,1-2.255,5.734c0-1.288,1.145-1.993,3.206-1.982v-.11A1.1,1.1,0,0,0-.26,2.407a2.67,2.67,0,0,0-1.389.4l-.219-.638A3.3,3.3,0,0,1-.118,1.692c1.631,0,2.027,1.112,2.027,2.181V5.866A7.489,7.489,0,0,0,2,7.144Z" transform="translate(2.255 0.819)"/>
      </g>
      <g id="Group_3927" data-name="Group 3927" transform="translate(58.184 221.386)">
        <path id="Path_3700" data-name="Path 3700" class="cls-7" d="M.432,1.6V-1.848H.355A2.112,2.112,0,0,1-1.726-3.963c0-1.134.616-2.423,3.029-2.423a6.04,6.04,0,0,1,1.289.1V1.6H1.908V-5.714H1.126V1.6Z" transform="translate(1.726 6.386)"/>
      </g>
      <g id="Group_3928" data-name="Group 3928" transform="translate(63.561 220.075)">
        <path id="Path_3701" data-name="Path 3701" class="cls-7" d="M.629.139A1.58,1.58,0,0,0,.3.1.612.612,0,0,0-.209.338,2.851,2.851,0,0,0-.54,2.077c0,1.6.134,3.514.134,5.177A3.5,3.5,0,0,1-.869,9.325a1.237,1.237,0,0,1-1.047.529,1.491,1.491,0,0,1-.6-.1l.133-.638a1.173,1.173,0,0,0,.385.065.594.594,0,0,0,.484-.231,2.632,2.632,0,0,0,.341-1.7c0-1.663-.131-3.624-.131-5.242A2.988,2.988,0,0,1-.727-.147a1.281,1.281,0,0,1,.98-.408,1.429,1.429,0,0,1,.5.078Z" transform="translate(2.511 0.555)"/>
      </g>
    </g>
  </g>
</svg>
