<svg xmlns="http://www.w3.org/2000/svg" xmlns:xlink="http://www.w3.org/1999/xlink" viewBox="612.38 439.549 113.886 41.005">
  <defs>
    <style>
      .cls-1 {
        fill: none;
      }

      .cls-2 {
        opacity: 0.813;
      }

      .cls-3 {
        clip-path: url(#clip-path);
      }

      .cls-4 {
        fill: #131514;
      }

      .cls-5 {
        fill: #fff;
      }
    </style>
    <clipPath id="clip-path">
      <path id="Path_3579" data-name="Path 3579" class="cls-1" d="M0-310.5H113.886V-269.5H0Z" transform="translate(0 310.503)"/>
    </clipPath>
  </defs>
  <g id="Group_3789" data-name="Group 3789" class="cls-2" transform="translate(612.38 439.549)">
    <g id="Group_3788" data-name="Group 3788" class="cls-3">
      <g id="Group_3742" data-name="Group 3742" transform="translate(30.653 0)">
        <path id="Path_3533" data-name="Path 3533" class="cls-4" d="M-10.826-108.091a1.067,1.067,0,0,1-.911-.762,16.032,16.032,0,0,1,.509-11.075,12.918,12.918,0,0,1,2.659-4.023,1.067,1.067,0,0,1,.6-.279,48.111,48.111,0,0,1,19.155,1.784,76.955,76.955,0,0,1,16.462,7.039,161.046,161.046,0,0,1,19.193,13.125,1.066,1.066,0,0,1,.068,1.506,1.066,1.066,0,0,1-1.506.068,164.141,164.141,0,0,0-18.844-12.866A74.806,74.806,0,0,0,10.57-120.4a46.234,46.234,0,0,0-17.9-1.755,11.766,11.766,0,0,0-1.977,3.173,13.869,13.869,0,0,0-.378,9.537,1.066,1.066,0,0,1-.725,1.322,1.068,1.068,0,0,1-.411.037" transform="translate(12.473 124.538)"/>
      </g>
      <g id="Group_3743" data-name="Group 3743" transform="translate(68.189 6.905)">
        <path id="Path_3534" data-name="Path 3534" class="cls-4" d="M-153.221-104.422a1.064,1.064,0,0,1-.8-.507c-2.61-4.3,2.1-9.558,4.411-11.756-2.942-1.306-7.917-1.77-14.544-1.342a102.363,102.363,0,0,0-11.115,1.366,1.066,1.066,0,0,1-1.247-.847,1.066,1.066,0,0,1,.847-1.247c.863-.165,21.222-3.982,28.491.984a1.067,1.067,0,0,1,.464.836,1.067,1.067,0,0,1-.393.872c-2.08,1.694-7.05,6.8-5.091,10.028a1.066,1.066,0,0,1-.358,1.465,1.06,1.06,0,0,1-.665.148" transform="translate(176.534 120.311)"/>
      </g>
      <g id="Group_3744" data-name="Group 3744" transform="translate(31.572 1.278)">
        <path id="Path_3535" data-name="Path 3535" class="cls-4" d="M-29.51,0s10.135,6.957,12.262,15.815l-14.878-1.447s-5.626-2,2.616-14.368" transform="translate(34)"/>
      </g>
      <g id="Group_3745" data-name="Group 3745" transform="translate(32.545 7.313)">
        <path id="Path_3536" data-name="Path 3536" class="cls-5" d="M-.29-8.829A1.056,1.056,0,0,0-.244-8.1l.229.452c.1.194.185.175.193-.043L.259-10c.008-.218-.046-.228-.12-.023Z" transform="translate(0.334 10.172)"/>
      </g>
      <g id="Group_3746" data-name="Group 3746" transform="translate(33.562 5.33)">
        <path id="Path_3537" data-name="Path 3537" class="cls-5" d="M-.5-5.474a.447.447,0,0,0,.012.514L-.2-4.6c.111.139.218.108.237-.069L.2-6.154c.019-.177-.052-.2-.156-.06Z" transform="translate(0.572 6.307)"/>
      </g>
      <g id="Group_3747" data-name="Group 3747" transform="translate(35.116 3.887)">
        <path id="Path_3538" data-name="Path 3538" class="cls-5" d="M-.268-5.131A.364.364,0,0,1-.144-5.6l.372-.236a.582.582,0,0,1,.564,0L.9-5.772a.319.319,0,0,1,.1.451l-.577.858A.184.184,0,0,1,.082-4.48Z" transform="translate(0.308 5.912)"/>
      </g>
      <g id="Group_3748" data-name="Group 3748" transform="translate(37.427 4.138)">
        <path id="Path_3539" data-name="Path 3539" class="cls-5" d="M-.022-1.285c-.023-.217.075-.26.219-.1l.3.339a.648.648,0,0,1,.088.654l-.243.5C.243.308.146.29.123.074Z" transform="translate(0.026 1.48)"/>
      </g>
      <g id="Group_3749" data-name="Group 3749" transform="translate(39.17 6.007)">
        <path id="Path_3540" data-name="Path 3540" class="cls-5" d="M0-1.275c-.005-.218.1-.258.242-.09l.11.134a.572.572,0,0,1,.033.637L.245-.383C.125-.2.023-.231.018-.449Z" transform="translate(0.001 1.469)"/>
      </g>
      <g id="Group_3750" data-name="Group 3750" transform="translate(40.28 7.472)">
        <path id="Path_3541" data-name="Path 3541" class="cls-5" d="M-.028-1.216c-.024-.217.058-.247.183-.069l.137.2a.675.675,0,0,1,.026.667L.3-.4c-.11.188-.22.164-.245-.052Z" transform="translate(0.032 1.401)"/>
      </g>
      <g id="Group_3751" data-name="Group 3751" transform="translate(53.889 18.537)">
        <path id="Path_3542" data-name="Path 3542" class="cls-4" d="M-11.782-20.7a15.06,15.06,0,0,0,1.341-2.578c.146-.393.2-1.045-.292-.031a6.025,6.025,0,0,1-2.842,2.772" transform="translate(13.575 23.847)"/>
      </g>
      <g id="Group_3752" data-name="Group 3752" transform="translate(57.527 17.855)">
        <path id="Path_3543" data-name="Path 3543" class="cls-4" d="M0-26.282a15.339,15.339,0,0,0,2.048-3.393c.548-1.305.437-.122.4.043a15.482,15.482,0,0,1-1.36,3.26" transform="translate(0 30.281)"/>
      </g>
      <g id="Group_3753" data-name="Group 3753" transform="translate(41.274 8.806)">
        <path id="Path_3544" data-name="Path 3544" class="cls-5" d="M-.023-1.407c-.023-.217.069-.279.206-.139a.592.592,0,0,1,.081.614L.238-.876C.146-.678.053-.694.03-.91Z" transform="translate(0.027 1.621)"/>
      </g>
      <g id="Group_3754" data-name="Group 3754" transform="translate(42.252 9.823)">
        <path id="Path_3545" data-name="Path 3545" class="cls-5" d="M-.034-1.218c-.027-.216.054-.248.18-.07l.12.169A.615.615,0,0,1,.3-.485C.186-.314.074-.351.047-.567Z" transform="translate(0.039 1.403)"/>
      </g>
      <g id="Group_3755" data-name="Group 3755" transform="translate(43.179 10.995)">
        <path id="Path_3546" data-name="Path 3546" class="cls-5" d="M-.009-1.175c0-.218.086-.24.191-.048L.358-.9a.33.33,0,0,1-.09.474C.115-.358-.011-.48-.01-.7Z" transform="translate(0.01 1.354)"/>
      </g>
      <g id="Group_3756" data-name="Group 3756" transform="translate(44.053 12.769)">
        <path id="Path_3547" data-name="Path 3547" class="cls-5" d="M0-1.109c0-.194.07-.225.155-.07s.085.314,0,.353S0-.915,0-1.109" transform="translate(0 1.277)"/>
      </g>
      <g id="Group_3757" data-name="Group 3757" transform="translate(44.666 14.071)">
        <path id="Path_3548" data-name="Path 3548" class="cls-5" d="M0-.626C0-.736.04-.754.088-.666s.048.177,0,.2S0-.517,0-.626" transform="translate(0 0.722)"/>
      </g>
      <g id="Group_3758" data-name="Group 3758" transform="translate(32.154 10.189)">
        <path id="Path_3549" data-name="Path 3549" class="cls-5" d="M-.125-1.088c0-.218.04-.221.08-.007L.148-.074C.188.14.138.348.035.387S-.147.28-.144.062Z" transform="translate(0.144 1.253)"/>
      </g>
      <g id="Group_3759" data-name="Group 3759" transform="translate(32.298 12.865)">
        <path id="Path_3550" data-name="Path 3550" class="cls-5" d="M-.021-1.111c-.019-.212.047-.227.147-.033l.014.027c.1.194.112.361.027.372S0-.9-.021-1.111" transform="translate(0.024 1.28)"/>
      </g>
      <g id="Group_3760" data-name="Group 3760" transform="translate(18.866 21.617)">
        <path id="Path_3551" data-name="Path 3551" class="cls-4" d="M-486.407-20.575H-558.85a1.566,1.566,0,0,1-1.566-1.565,1.566,1.566,0,0,1,1.566-1.565h72.443a1.565,1.565,0,0,1,1.565,1.565,1.565,1.565,0,0,1-1.565,1.565" transform="translate(560.416 23.706)"/>
      </g>
      <g id="Group_3761" data-name="Group 3761" transform="translate(46.183 4.896)">
        <path id="Path_3552" data-name="Path 3552" class="cls-4" d="M-8.781-1.306c-.771.181-1.489.4-1.308,1.169A1.433,1.433,0,0,0-8.367.93,1.746,1.746,0,0,0-7.155-.99c-.181-.77-.857-.5-1.627-.316" transform="translate(10.118 1.505)"/>
      </g>
      <g id="Group_3762" data-name="Group 3762" transform="translate(27.973 15.31)">
        <path id="Path_3553" data-name="Path 3553" class="cls-4" d="M-29.878,0S-38.834,3.652-31.6,5.412s17.533-3.63,17.533-3.63" transform="translate(34.424)"/>
      </g>
      <g id="Group_3763" data-name="Group 3763" transform="translate(27.551 17.602)">
        <path id="Path_3554" data-name="Path 3554" class="cls-4" d="M-58.136-41.014h-.017c-5.07-.125-7.9-1.052-8.644-2.835a3.263,3.263,0,0,1,.777-3.2.66.66,0,0,1,.933-.031.66.66,0,0,1,.032.931c-.015.016-.872.966-.523,1.79.711,1.675,5.451,1.971,7.457,2.02a.66.66,0,0,1,.644.677.66.66,0,0,1-.66.644" transform="translate(66.982 47.254)"/>
      </g>
      <g id="Group_3764" data-name="Group 3764" transform="translate(32.74 16.518)">
        <path id="Path_3555" data-name="Path 3555" class="cls-5" d="M-2.746-.243a.276.276,0,0,0-.4.158c-.069.174.055.245.274.158s.275-.229.125-.316" transform="translate(3.164 0.28)"/>
      </g>
      <g id="Group_3765" data-name="Group 3765" transform="translate(31.599 17.084)">
        <path id="Path_3556" data-name="Path 3556" class="cls-5" d="M-1.609-.177c-.135-.074-.245.01-.245.186s.11.237.245.134.135-.246,0-.32" transform="translate(1.854 0.204)"/>
      </g>
      <g id="Group_3766" data-name="Group 3766" transform="translate(30.608 17.593)">
        <path id="Path_3557" data-name="Path 3557" class="cls-5" d="M0-1.52c0,.211.124.3.276.2a.218.218,0,0,0,0-.383C.124-1.813,0-1.731,0-1.52" transform="translate(0 1.751)"/>
      </g>
      <g id="Group_3767" data-name="Group 3767" transform="translate(29.829 18.18)">
        <path id="Path_3558" data-name="Path 3558" class="cls-5" d="M-1.443-2.777c.121-.052.121-.206,0-.342s-.22-.094-.22.094.1.3.22.248" transform="translate(1.663 3.199)"/>
      </g>
      <g id="Group_3768" data-name="Group 3768" transform="translate(29.758 19.082)">
        <path id="Path_3559" data-name="Path 3559" class="cls-5" d="M-1.621-2.046c-.1.045-.2-.034-.239-.176s.045-.178.176-.082.159.213.063.257" transform="translate(1.868 2.358)"/>
      </g>
      <g id="Group_3769" data-name="Group 3769" transform="translate(30.273 19.686)">
        <path id="Path_3560" data-name="Path 3560" class="cls-5" d="M-1.372-.145c-.166-.052-.251-.009-.188.094a.237.237,0,0,0,.3.094c.1-.052.053-.137-.113-.188" transform="translate(1.581 0.167)"/>
      </g>
      <g id="Group_3770" data-name="Group 3770" transform="translate(31.316 19.883)">
        <path id="Path_3561" data-name="Path 3561" class="cls-5" d="M-1.226-1.327c-.188-.024-.243-.1-.122-.163a.276.276,0,0,1,.342.044c.067.09-.032.144-.22.119" transform="translate(1.412 1.529)"/>
      </g>
      <g id="Group_3771" data-name="Group 3771" transform="translate(32.386 19.8)">
        <path id="Path_3562" data-name="Path 3562" class="cls-5" d="M-.337-.629C-.446-.5-.376-.4-.183-.4S.1-.5.014-.629a.209.209,0,0,0-.352,0" transform="translate(0.388 0.725)"/>
      </g>
      <g id="Group_3772" data-name="Group 3772" transform="translate(33.66 19.788)">
        <path id="Path_3563" data-name="Path 3563" class="cls-5" d="M-.242-.71c-.1.128.019.215.272.195S.369-.641.219-.748A.344.344,0,0,0-.242-.71" transform="translate(0.279 0.818)"/>
      </g>
      <g id="Group_3773" data-name="Group 3773" transform="translate(35.207 19.589)">
        <path id="Path_3564" data-name="Path 3564" class="cls-5" d="M-.143-.86c-.076.135.054.208.289.163s.3-.155.138-.245A.31.31,0,0,0-.143-.86" transform="translate(0.164 0.99)"/>
      </g>
      <g id="Group_3774" data-name="Group 3774" transform="translate(37.032 19.312)">
        <path id="Path_3565" data-name="Path 3565" class="cls-5" d="M-.235-.845c-.107.123.034.181.314.129S.446-.869.273-.939a.478.478,0,0,0-.509.094" transform="translate(0.271 0.974)"/>
      </g>
      <g id="Group_3775" data-name="Group 3775" transform="translate(39.145 18.782)">
        <path id="Path_3566" data-name="Path 3566" class="cls-5" d="M-.3-1.342c-.121.159.009.224.288.144l.294-.084c.279-.08.312-.191.073-.247A.689.689,0,0,0-.3-1.342" transform="translate(0.343 1.546)"/>
      </g>
      <g id="Group_3776" data-name="Group 3776" transform="translate(41.431 18.051)">
        <path id="Path_3567" data-name="Path 3567" class="cls-5" d="M-.251-1.525c-.111.186.027.273.306.192l.414-.12c.279-.081.277-.206,0-.279h0a.671.671,0,0,0-.713.208" transform="translate(0.289 1.757)"/>
      </g>
      <g id="Group_3777" data-name="Group 3777" transform="translate(43.638 17.389)">
        <path id="Path_3568" data-name="Path 3568" class="cls-5" d="M-.244-1.522c-.108.178.029.248.3.155l.272-.091c.275-.092.3-.217.061-.278a.609.609,0,0,0-.637.214" transform="translate(0.281 1.754)"/>
      </g>
      <g id="Group_3778" data-name="Group 3778" transform="translate(0 28.915)">
        <path id="Path_3569" data-name="Path 3569" class="cls-4" d="M-48.254-1.411a5.336,5.336,0,0,1,1.528.595h.017l-.066-.694H-45.5V2.338h-1.074A3.276,3.276,0,0,0-47.618.29,3.077,3.077,0,0,0-49.65-.437,2.743,2.743,0,0,0-51.5.216a3.959,3.959,0,0,0-1.14,1.726,6.877,6.877,0,0,0-.38,2.312,6.267,6.267,0,0,0,.908,3.551A2.893,2.893,0,0,0-49.567,9.16a7.38,7.38,0,0,0,1.214-.116,4.007,4.007,0,0,0,1.115-.33V7.178a13.28,13.28,0,0,1,.066-1.486q-.43.033-.809.033l-.429.017V4.469h4.394v1.09a1.872,1.872,0,0,0-.644.116.662.662,0,0,0-.347.4A2.744,2.744,0,0,0-45.124,7V9.639h-.4a3.453,3.453,0,0,0-.752.083q-.371.083-.95.264-.859.248-1.437.363a6.791,6.791,0,0,1-1.321.116,5.645,5.645,0,0,1-3.014-.776,5.131,5.131,0,0,1-1.933-2.106,6.576,6.576,0,0,1-.669-3,7.134,7.134,0,0,1,.653-3A5.581,5.581,0,0,1-52.994-.734a5.386,5.386,0,0,1,3.13-.892,7.033,7.033,0,0,1,1.61.215" transform="translate(55.596 1.626)"/>
      </g>
      <g id="Group_3779" data-name="Group 3779" transform="translate(12.685 29.146)">
        <path id="Path_3570" data-name="Path 3570" class="cls-4" d="M-25.185-9.229a1.492,1.492,0,0,0-.264,1.057v3.386a6.3,6.3,0,0,0,.793.066,2.687,2.687,0,0,0,1.957-.6,2.583,2.583,0,0,0,.6-1.891,2,2,0,0,0-.7-1.817,2.823,2.823,0,0,0-1.544-.446,1.2,1.2,0,0,0-.842.248m4.352-.611A2.91,2.91,0,0,1-19.6-7.214a3.075,3.075,0,0,1-.735,2.023,4.262,4.262,0,0,1-2.172,1.3v.017a1.994,1.994,0,0,1,.611.4,3.042,3.042,0,0,1,.529.636l.776,1.156A6.142,6.142,0,0,0-19.66-.475a1.4,1.4,0,0,0,.917.347V.962h-2.725a2.618,2.618,0,0,1-.562-.57,10.873,10.873,0,0,1-.644-.983L-23.9-2.573a6.475,6.475,0,0,0-.694-.958h-.859v1.767a13.532,13.532,0,0,1-.066,1.5q.529-.05,1.4-.05V.962h-4.906V-.128a2.162,2.162,0,0,0,.677-.107.685.685,0,0,0,.363-.388,2.474,2.474,0,0,0,.132-.942V-7.891a13.241,13.241,0,0,1,.066-1.486l-1.239.05V-10.6l4.691-.033a6.259,6.259,0,0,1,3.493.793" transform="translate(29.017 10.633)"/>
      </g>
      <g id="Group_3780" data-name="Group 3780" transform="translate(24.016 29.179)">
        <path id="Path_3571" data-name="Path 3571" class="cls-4" d="M-54.929-21.06h-1.09a2.069,2.069,0,0,0-.586-1.693,2.048,2.048,0,0,0-1.412-.438l-.595.017a2,2,0,0,0-.628.107.661.661,0,0,0-.355.4,2.648,2.648,0,0,0-.124.925v2.478h1.932q-.017-.281-.066-1.437h1.272v4.014h-1.09a1.809,1.809,0,0,0-.207-.975.927.927,0,0,0-.537-.4,3.073,3.073,0,0,0-.875-.074l-.429.017v2.709a12.964,12.964,0,0,1-.066,1.454h2.213a1.974,1.974,0,0,0,1.429-.57,2.43,2.43,0,0,0,.586-1.809h1.074l-.083,3.634h-8.721v-1.09a2.154,2.154,0,0,0,.677-.107.685.685,0,0,0,.363-.388,2.474,2.474,0,0,0,.132-.941v-6.326a13.244,13.244,0,0,1,.066-1.487l-1.239.05v-1.272h8.259Z" transform="translate(63.287 24.264)"/>
      </g>
      <g id="Group_3781" data-name="Group 3781" transform="translate(34.323 29.179)">
        <path id="Path_3572" data-name="Path 3572" class="cls-4" d="M-54.929-21.06h-1.09a2.069,2.069,0,0,0-.586-1.693,2.048,2.048,0,0,0-1.412-.438l-.595.017a2,2,0,0,0-.628.107.661.661,0,0,0-.355.4,2.648,2.648,0,0,0-.124.925v2.478h1.932q-.017-.281-.066-1.437h1.272v4.014h-1.09a1.809,1.809,0,0,0-.207-.975.927.927,0,0,0-.537-.4,3.073,3.073,0,0,0-.875-.074l-.429.017v2.709a12.964,12.964,0,0,1-.066,1.454h2.213a1.974,1.974,0,0,0,1.429-.57,2.43,2.43,0,0,0,.586-1.809h1.074l-.083,3.634h-8.721v-1.09a2.154,2.154,0,0,0,.677-.107.685.685,0,0,0,.363-.388,2.474,2.474,0,0,0,.132-.941v-6.326a13.244,13.244,0,0,1,.066-1.487l-1.239.05v-1.272h8.259Z" transform="translate(63.287 24.264)"/>
      </g>
      <g id="Group_3782" data-name="Group 3782" transform="translate(44.596 29.179)">
        <path id="Path_3573" data-name="Path 3573" class="cls-4" d="M-74.9-7.165a2.168,2.168,0,0,0-.677.107.685.685,0,0,0-.363.388,2.471,2.471,0,0,0-.132.941v9.2h-1.4l-5.285-6.756q-.413-.528-.908-1.239h-.017L-83.658.6a13.335,13.335,0,0,1-.066,1.487q.528-.05,1.239-.05V3.307h-3.766V2.217a2.162,2.162,0,0,0,.677-.107.686.686,0,0,0,.363-.388A2.474,2.474,0,0,0-85.079.78l-.033-6.326a10.584,10.584,0,0,1,.066-1.487l-1.255.05V-8.255h2.593l5.054,6.376Q-77.96-.971-77.5-.31h.017V-5.546a14.722,14.722,0,0,1,.05-1.487l-1.239.05V-8.255H-74.9Z" transform="translate(86.301 8.255)"/>
      </g>
      <g id="Group_3783" data-name="Group 3783" transform="translate(57.281 28.915)">
        <path id="Path_3574" data-name="Path 3574" class="cls-4" d="M-35.173-1.357a3.773,3.773,0,0,1,1.288.586h.017l-.066-.677h1.288V2.4h-1.09a3.556,3.556,0,0,0-.95-2.065,2.588,2.588,0,0,0-1.875-.71,2.066,2.066,0,0,0-1.28.4,1.227,1.227,0,0,0-.537,1.016,1.517,1.517,0,0,0,.611,1.222A8.694,8.694,0,0,0-35.7,3.359a10.065,10.065,0,0,1,2.717,1.528,2.84,2.84,0,0,1,1.049,2.3,2.962,2.962,0,0,1-.529,1.734,3.451,3.451,0,0,1-1.487,1.181,5.456,5.456,0,0,1-2.213.421,5.382,5.382,0,0,1-1.445-.215,5.869,5.869,0,0,1-1.412-.595h-.017l.05.694h-1.272V6.547h1.09A3.326,3.326,0,0,0-38.13,8.62a2.963,2.963,0,0,0,2.015.719,2.186,2.186,0,0,0,1.421-.454,1.37,1.37,0,0,0,.562-1.1,1.254,1.254,0,0,0-.372-.908,2.864,2.864,0,0,0-.826-.595q-.455-.215-1.445-.611A8.647,8.647,0,0,1-39.559,4.02a3.207,3.207,0,0,1-.966-2.428,3.126,3.126,0,0,1,.38-1.478,2.986,2.986,0,0,1,1.247-1.2,4.6,4.6,0,0,1,2.238-.479,5.788,5.788,0,0,1,1.487.206" transform="translate(40.525 1.563)"/>
      </g>
      <g id="Group_3784" data-name="Group 3784" transform="translate(67.274 29.179)">
        <path id="Path_3575" data-name="Path 3575" class="cls-4" d="M-76.748-7.165a2.167,2.167,0,0,0-.677.107.684.684,0,0,0-.363.388,2.472,2.472,0,0,0-.132.941V.6a13.326,13.326,0,0,1-.066,1.487q.529-.05,1.239-.05V3.307h-4.74V2.217a2.161,2.161,0,0,0,.677-.107.686.686,0,0,0,.363-.388A2.477,2.477,0,0,0-80.316.78V-1.9l-4.542.05V.6a13.337,13.337,0,0,1-.066,1.487q.528-.05,1.239-.05V3.307h-4.74V2.217a2.161,2.161,0,0,0,.677-.107.685.685,0,0,0,.363-.388A2.477,2.477,0,0,0-87.253.78V-5.546a13.284,13.284,0,0,1,.066-1.487l-1.239.05V-8.255h4.74v1.09a2.167,2.167,0,0,0-.677.107.685.685,0,0,0-.363.388,2.471,2.471,0,0,0-.132.941v2.577h4.542v-2.4a10.61,10.61,0,0,1,.066-1.487l-1.239.05V-8.255h4.74Z" transform="translate(88.426 8.255)"/>
      </g>
      <g id="Group_3785" data-name="Group 3785" transform="translate(79.844 28.882)">
        <path id="Path_3576" data-name="Path 3576" class="cls-4" d="M-32.351-19.106a19.289,19.289,0,0,1-.611,2.18l-.743,2.147h2.758l-.76-2.065a13.666,13.666,0,0,1-.628-2.263Zm4.559,6.095q.132.331.281.818a4.417,4.417,0,0,1,.182.818q.545-.05.958-.05v1.272h-4.443v-1.09q.793,0,.793-.661A2.236,2.236,0,0,0-30.2-12.7l-.33-.908-3.584.066-.264.776-.223.595q-.173.463-.305.743.529-.05,1.173-.05v1.321h-3.535v-1.14a1.065,1.065,0,0,0,.719-.248,1.764,1.764,0,0,0,.454-.6q.165-.355.413-1.032l3.221-8.837h1.156Z" transform="translate(37.273 22.013)"/>
      </g>
      <g id="Group_3786" data-name="Group 3786" transform="translate(91.637 29.146)">
        <path id="Path_3577" data-name="Path 3577" class="cls-4" d="M-25.184-9.229a1.493,1.493,0,0,0-.264,1.057v3.386a6.294,6.294,0,0,0,.793.066,2.687,2.687,0,0,0,1.957-.6,2.583,2.583,0,0,0,.6-1.891,2,2,0,0,0-.7-1.817,2.823,2.823,0,0,0-1.544-.446,1.2,1.2,0,0,0-.842.248m4.352-.611A2.91,2.91,0,0,1-19.6-7.214a3.075,3.075,0,0,1-.735,2.023,4.261,4.261,0,0,1-2.172,1.3v.017a1.994,1.994,0,0,1,.611.4,3.047,3.047,0,0,1,.529.636l.776,1.156a6.142,6.142,0,0,0,.933,1.206,1.4,1.4,0,0,0,.917.347V.962h-2.725a2.615,2.615,0,0,1-.562-.57,10.874,10.874,0,0,1-.644-.983L-23.9-2.573a6.467,6.467,0,0,0-.694-.958h-.859v1.767a13.533,13.533,0,0,1-.066,1.5q.528-.05,1.4-.05V.962h-4.906V-.128a2.161,2.161,0,0,0,.677-.107.685.685,0,0,0,.363-.388,2.477,2.477,0,0,0,.132-.942V-7.891a13.277,13.277,0,0,1,.066-1.486l-1.239.05V-10.6l4.691-.033a6.259,6.259,0,0,1,3.493.793" transform="translate(29.016 10.633)"/>
      </g>
      <g id="Group_3787" data-name="Group 3787" transform="translate(102.968 29.179)">
        <path id="Path_3578" data-name="Path 3578" class="cls-4" d="M-66.762-7.165a3.1,3.1,0,0,0-1.33.363A3.569,3.569,0,0,0-69.322-5.48l-1.586,2.544v.017a3.477,3.477,0,0,1,1.041.958l1.7,2.4Q-66.944,2.167-66,2.217v1.09h-2.543q-.182-.016-.719-.586a9.306,9.306,0,0,1-.9-1.1L-71.8-.756q-.231-.33-.5-.661a2.786,2.786,0,0,0-.462-.479h-.595V.6a13.34,13.34,0,0,1-.066,1.487q.528-.05,1.239-.05V3.307h-4.74V2.217a2.161,2.161,0,0,0,.677-.107.685.685,0,0,0,.363-.388A2.478,2.478,0,0,0-75.747.78V-5.546a13.28,13.28,0,0,1,.066-1.487l-1.239.05V-8.255h4.74v1.09a2.167,2.167,0,0,0-.677.107.685.685,0,0,0-.363.388,2.471,2.471,0,0,0-.132.941v2.511h1.189l1.272-2.164a7.335,7.335,0,0,1,1.123-1.652v-.017q-.364.033-.628.041t-.413.025V-8.255h4.047Z" transform="translate(76.92 8.255)"/>
      </g>
    </g>
  </g>
</svg>
