<svg xmlns="http://www.w3.org/2000/svg" xmlns:xlink="http://www.w3.org/1999/xlink" viewBox="1450.718 1304.006 233.564 210.487">
  <defs>
    <style>
      .cls-1, .cls-5, .cls-6 {
        fill: none;
      }

      .cls-2 {
        clip-path: url(#clip-path);
      }

      .cls-3 {
        fill: #1f61e8;
      }

      .cls-4 {
        fill: #1d52aa;
      }

      .cls-5, .cls-6 {
        stroke: #1f61e8;
        stroke-width: 2px;
      }

      .cls-6 {
        stroke-linecap: round;
      }
    </style>
    <clipPath id="clip-path">
      <path id="Path_3664" data-name="Path 3664" class="cls-1" d="M0-150.5H233.564V59.987H0Z" transform="translate(0 150.5)"/>
    </clipPath>
  </defs>
  <g id="Group_3892" data-name="Group 3892" transform="translate(1450.718 1304.006)">
    <g id="Group_3891" data-name="Group 3891" class="cls-2">
      <g id="Group_3828" data-name="Group 3828" transform="translate(81.625 61.306)">
        <path id="Path_3601" data-name="Path 3601" class="cls-3" d="M18.468,9.234a32.4,32.4,0,0,1-32.4,32.4,32.4,32.4,0,0,1-32.4-32.4,32.4,32.4,0,0,1,32.4-32.4,32.4,32.4,0,0,1,32.4,32.4" transform="translate(46.334 23.167)"/>
      </g>
      <g id="Group_3829" data-name="Group 3829" transform="translate(99.339 79.02)">
        <path id="Path_3602" data-name="Path 3602" class="cls-4" d="M8.371,4.186A14.687,14.687,0,0,1-6.317,18.872,14.685,14.685,0,0,1-21,4.186,14.685,14.685,0,0,1-6.317-10.5,14.687,14.687,0,0,1,8.371,4.186" transform="translate(21.002 10.501)"/>
      </g>
      <g id="Group_3830" data-name="Group 3830" transform="translate(148.013 42.087)">
        <path id="Path_3603" data-name="Path 3603" class="cls-3" d="M2.417,1.209A4.241,4.241,0,0,1-1.825,5.449,4.239,4.239,0,0,1-6.064,1.209,4.239,4.239,0,0,1-1.825-3.032,4.241,4.241,0,0,1,2.417,1.209" transform="translate(6.064 3.032)"/>
      </g>
      <g id="Group_3831" data-name="Group 3831" transform="translate(145.492 152.386)">
        <path id="Path_3604" data-name="Path 3604" class="cls-3" d="M3.854,1.927A6.761,6.761,0,0,1-2.909,8.688,6.76,6.76,0,0,1-9.668,1.927,6.76,6.76,0,0,1-2.909-4.834,6.761,6.761,0,0,1,3.854,1.927" transform="translate(9.668 4.834)"/>
      </g>
      <g id="Group_3832" data-name="Group 3832" transform="translate(78.011 35.326)">
        <path id="Path_3605" data-name="Path 3605" class="cls-3" d="M3.854,1.927A6.761,6.761,0,0,1-2.909,8.688,6.76,6.76,0,0,1-9.668,1.927,6.76,6.76,0,0,1-2.909-4.834,6.761,6.761,0,0,1,3.854,1.927" transform="translate(9.668 4.834)"/>
      </g>
      <g id="Group_3833" data-name="Group 3833" transform="translate(62.333 28.874)">
        <path id="Path_3606" data-name="Path 3606" class="cls-3" d="M2.276,1.138A3.994,3.994,0,0,1-1.718,5.131,3.993,3.993,0,0,1-5.711,1.138,3.993,3.993,0,0,1-1.718-2.855,3.994,3.994,0,0,1,2.276,1.138" transform="translate(5.711 2.855)"/>
      </g>
      <g id="Group_3834" data-name="Group 3834" transform="translate(55.744 121.672)">
        <path id="Path_3607" data-name="Path 3607" class="cls-3" d="M6.032,3.016A10.584,10.584,0,0,1-4.551,13.6,10.583,10.583,0,0,1-15.133,3.016,10.583,10.583,0,0,1-4.551-7.567,10.584,10.584,0,0,1,6.032,3.016" transform="translate(15.133 7.567)"/>
      </g>
      <g id="Group_3835" data-name="Group 3835" transform="translate(53.187 32.868)">
        <path id="Path_3608" data-name="Path 3608" class="cls-5" d="M34.677,17.338A60.841,60.841,0,0,1-26.165,78.177,60.836,60.836,0,0,1-87,17.338,60.836,60.836,0,0,1-26.165-43.5,60.841,60.841,0,0,1,34.677,17.338Z" transform="translate(87.001 43.5)"/>
      </g>
      <g id="Group_3836" data-name="Group 3836" transform="translate(38.27 17.949)">
        <path id="Path_3609" data-name="Path 3609" class="cls-5" d="M43.18,21.59A75.759,75.759,0,0,1-32.581,97.347,75.753,75.753,0,0,1-108.333,21.59,75.753,75.753,0,0,1-32.581-54.167,75.759,75.759,0,0,1,43.18,21.59Z" transform="translate(108.333 54.167)"/>
      </g>
      <g id="Group_3837" data-name="Group 3837" transform="translate(199.71 103.17)">
        <path id="Path_3610" data-name="Path 3610" class="cls-6" d="M1.572.172l-5.515-.6" transform="translate(3.943 0.431)"/>
      </g>
      <g id="Group_3838" data-name="Group 3838" transform="translate(197.85 113.834)">
        <path id="Path_3611" data-name="Path 3611" class="cls-6" d="M1.538.368l-5.4-1.291" transform="translate(3.858 0.923)"/>
      </g>
      <g id="Group_3839" data-name="Group 3839" transform="translate(194.678 124.181)">
        <path id="Path_3612" data-name="Path 3612" class="cls-6" d="M1.479.559-3.71-1.4" transform="translate(3.71 1.403)"/>
      </g>
      <g id="Group_3840" data-name="Group 3840" transform="translate(190.218 134.045)">
        <path id="Path_3613" data-name="Path 3613" class="cls-6" d="M1.4.741l-4.9-2.6" transform="translate(3.504 1.859)"/>
      </g>
      <g id="Group_3841" data-name="Group 3841" transform="translate(184.548 143.264)">
        <path id="Path_3614" data-name="Path 3614" class="cls-6" d="M1.293.91-3.243-2.284" transform="translate(3.243 2.284)"/>
      </g>
      <g id="Group_3842" data-name="Group 3842" transform="translate(177.789 151.727)">
        <path id="Path_3615" data-name="Path 3615" class="cls-6" d="M1.169,1.064l-4.1-3.734" transform="translate(2.934 2.67)"/>
      </g>
      <g id="Group_3843" data-name="Group 3843" transform="translate(169.999 159.247)">
        <path id="Path_3616" data-name="Path 3616" class="cls-6" d="M1.028,1.2-2.578-3.015" transform="translate(2.578 3.015)"/>
      </g>
      <g id="Group_3844" data-name="Group 3844" transform="translate(161.348 165.758)">
        <path id="Path_3617" data-name="Path 3617" class="cls-6" d="M.87,1.321-2.182-3.313" transform="translate(2.182 3.313)"/>
      </g>
      <g id="Group_3845" data-name="Group 3845" transform="translate(151.953 171.134)">
        <path id="Path_3618" data-name="Path 3618" class="cls-6" d="M.7,1.419l-2.445-4.98" transform="translate(1.748 3.561)"/>
      </g>
      <g id="Group_3846" data-name="Group 3846" transform="translate(141.951 175.268)">
        <path id="Path_3619" data-name="Path 3619" class="cls-6" d="M.512,1.5l-1.8-5.249" transform="translate(1.284 3.753)"/>
      </g>
      <g id="Group_3847" data-name="Group 3847" transform="translate(131.515 178.14)">
        <path id="Path_3620" data-name="Path 3620" class="cls-6" d="M.319,1.549-.8-3.885" transform="translate(0.801 3.885)"/>
      </g>
      <g id="Group_3848" data-name="Group 3848" transform="translate(120.791 179.627)">
        <path id="Path_3621" data-name="Path 3621" class="cls-6" d="M.122,1.576-.307-3.955" transform="translate(0.307 3.955)"/>
      </g>
      <g id="Group_3849" data-name="Group 3849" transform="translate(109.704 179.815)">
        <path id="Path_3622" data-name="Path 3622" class="cls-6" d="M0,1.579.259-3.962" transform="translate(0 3.962)"/>
      </g>
      <g id="Group_3850" data-name="Group 3850" transform="translate(98.253 178.622)">
        <path id="Path_3623" data-name="Path 3623" class="cls-6" d="M0,1.558.948-3.908" transform="translate(0 3.908)"/>
      </g>
      <g id="Group_3851" data-name="Group 3851" transform="translate(87.04 176.122)">
        <path id="Path_3624" data-name="Path 3624" class="cls-6" d="M0,1.511l1.629-5.3" transform="translate(0 3.792)"/>
      </g>
      <g id="Group_3852" data-name="Group 3852" transform="translate(76.267 172.277)">
        <path id="Path_3625" data-name="Path 3625" class="cls-6" d="M0,1.44,2.287-3.614" transform="translate(0 3.614)"/>
      </g>
      <g id="Group_3853" data-name="Group 3853" transform="translate(66.079 167.22)">
        <path id="Path_3626" data-name="Path 3626" class="cls-6" d="M0,1.347,2.9-3.38" transform="translate(0 3.38)"/>
      </g>
      <g id="Group_3854" data-name="Group 3854" transform="translate(56.665 160.976)">
        <path id="Path_3627" data-name="Path 3627" class="cls-6" d="M0,1.233,3.471-3.094" transform="translate(0 3.094)"/>
      </g>
      <g id="Group_3855" data-name="Group 3855" transform="translate(48.147 153.686)">
        <path id="Path_3628" data-name="Path 3628" class="cls-6" d="M0,1.1,3.985-2.761" transform="translate(0 2.761)"/>
      </g>
      <g id="Group_3856" data-name="Group 3856" transform="translate(40.648 145.466)">
        <path id="Path_3629" data-name="Path 3629" class="cls-6" d="M0,.95,4.435-2.384" transform="translate(0 2.384)"/>
      </g>
      <g id="Group_3857" data-name="Group 3857" transform="translate(34.331 136.412)">
        <path id="Path_3630" data-name="Path 3630" class="cls-6" d="M0,.784,4.815-1.968" transform="translate(0 1.968)"/>
      </g>
      <g id="Group_3858" data-name="Group 3858" transform="translate(29.242 126.7)">
        <path id="Path_3631" data-name="Path 3631" class="cls-6" d="M0,.606,5.124-1.52" transform="translate(0 1.52)"/>
      </g>
      <g id="Group_3859" data-name="Group 3859" transform="translate(25.519 116.458)">
        <path id="Path_3632" data-name="Path 3632" class="cls-6" d="M0,.416l5.352-1.46" transform="translate(0 1.044)"/>
      </g>
      <g id="Group_3860" data-name="Group 3860" transform="translate(23.19 105.858)">
        <path id="Path_3633" data-name="Path 3633" class="cls-6" d="M0,.221,5.5-.554" transform="translate(0 0.554)"/>
      </g>
      <g id="Group_3861" data-name="Group 3861" transform="translate(22.302 95.06)">
        <path id="Path_3634" data-name="Path 3634" class="cls-6" d="M0,.025,5.548-.062" transform="translate(0 0.062)"/>
      </g>
      <g id="Group_3862" data-name="Group 3862" transform="translate(22.827 83.641)">
        <path id="Path_3635" data-name="Path 3635" class="cls-6" d="M0,0,5.515.6"/>
      </g>
      <g id="Group_3863" data-name="Group 3863" transform="translate(24.806 72.288)">
        <path id="Path_3636" data-name="Path 3636" class="cls-6" d="M0,0,5.4,1.291"/>
      </g>
      <g id="Group_3864" data-name="Group 3864" transform="translate(28.185 61.27)">
        <path id="Path_3637" data-name="Path 3637" class="cls-6" d="M0,0,5.189,1.962"/>
      </g>
      <g id="Group_3865" data-name="Group 3865" transform="translate(32.932 50.768)">
        <path id="Path_3638" data-name="Path 3638" class="cls-6" d="M0,0,4.9,2.6"/>
      </g>
      <g id="Group_3866" data-name="Group 3866" transform="translate(38.968 40.954)">
        <path id="Path_3639" data-name="Path 3639" class="cls-6" d="M0,0,4.536,3.194"/>
      </g>
      <g id="Group_3867" data-name="Group 3867" transform="translate(46.159 31.952)">
        <path id="Path_3640" data-name="Path 3640" class="cls-6" d="M0,0,4.1,3.734"/>
      </g>
      <g id="Group_3868" data-name="Group 3868" transform="translate(54.446 23.949)">
        <path id="Path_3641" data-name="Path 3641" class="cls-6" d="M0,0,3.606,4.217"/>
      </g>
      <g id="Group_3869" data-name="Group 3869" transform="translate(63.652 17.022)">
        <path id="Path_3642" data-name="Path 3642" class="cls-6" d="M0,0,3.052,4.634"/>
      </g>
      <g id="Group_3870" data-name="Group 3870" transform="translate(73.654 11.299)">
        <path id="Path_3643" data-name="Path 3643" class="cls-6" d="M0,0,2.445,4.98"/>
      </g>
      <g id="Group_3871" data-name="Group 3871" transform="translate(84.304 6.897)">
        <path id="Path_3644" data-name="Path 3644" class="cls-6" d="M0,0,1.8,5.249"/>
      </g>
      <g id="Group_3872" data-name="Group 3872" transform="translate(95.417 3.839)">
        <path id="Path_3645" data-name="Path 3645" class="cls-6" d="M0,0,1.12,5.434"/>
      </g>
      <g id="Group_3873" data-name="Group 3873" transform="translate(106.831 2.254)">
        <path id="Path_3646" data-name="Path 3646" class="cls-6" d="M0,0,.429,5.531"/>
      </g>
      <g id="Group_3874" data-name="Group 3874" transform="translate(118.088 2.057)">
        <path id="Path_3647" data-name="Path 3647" class="cls-6" d="M.074,0-.185,5.541" transform="translate(0.185)"/>
      </g>
      <g id="Group_3875" data-name="Group 3875" transform="translate(128.85 3.326)">
        <path id="Path_3648" data-name="Path 3648" class="cls-6" d="M.27,0-.678,5.466" transform="translate(0.678)"/>
      </g>
      <g id="Group_3876" data-name="Group 3876" transform="translate(139.382 5.988)">
        <path id="Path_3649" data-name="Path 3649" class="cls-6" d="M.464,0-1.165,5.3" transform="translate(1.165)"/>
      </g>
      <g id="Group_3877" data-name="Group 3877" transform="translate(149.498 10.082)">
        <path id="Path_3650" data-name="Path 3650" class="cls-6" d="M.652,0-1.635,5.054" transform="translate(1.635)"/>
      </g>
      <g id="Group_3878" data-name="Group 3878" transform="translate(159.069 15.466)">
        <path id="Path_3651" data-name="Path 3651" class="cls-6" d="M.827,0l-2.9,4.727" transform="translate(2.076)"/>
      </g>
      <g id="Group_3879" data-name="Group 3879" transform="translate(167.916 22.11)">
        <path id="Path_3652" data-name="Path 3652" class="cls-6" d="M.989,0-2.482,4.327" transform="translate(2.482)"/>
      </g>
      <g id="Group_3880" data-name="Group 3880" transform="translate(175.919 29.866)">
        <path id="Path_3653" data-name="Path 3653" class="cls-6" d="M1.136,0-2.849,3.861" transform="translate(2.849)"/>
      </g>
      <g id="Group_3881" data-name="Group 3881" transform="translate(182.969 38.613)">
        <path id="Path_3654" data-name="Path 3654" class="cls-6" d="M1.264,0-3.171,3.334" transform="translate(3.171)"/>
      </g>
      <g id="Group_3882" data-name="Group 3882" transform="translate(188.905 48.248)">
        <path id="Path_3655" data-name="Path 3655" class="cls-6" d="M1.372,0-3.443,2.752" transform="translate(3.443)"/>
      </g>
      <g id="Group_3883" data-name="Group 3883" transform="translate(193.685 58.588)">
        <path id="Path_3656" data-name="Path 3656" class="cls-6" d="M1.46,0-3.664,2.126" transform="translate(3.664)"/>
      </g>
      <g id="Group_3884" data-name="Group 3884" transform="translate(197.18 69.495)">
        <path id="Path_3657" data-name="Path 3657" class="cls-6" d="M1.525,0-3.827,1.46" transform="translate(3.827)"/>
      </g>
      <g id="Group_3885" data-name="Group 3885" transform="translate(199.366 80.781)">
        <path id="Path_3658" data-name="Path 3658" class="cls-6" d="M1.566,0l-5.5.775" transform="translate(3.929)"/>
      </g>
      <g id="Group_3886" data-name="Group 3886" transform="translate(200.201 92.266)">
        <path id="Path_3659" data-name="Path 3659" class="cls-6" d="M1.581,0-3.967.087" transform="translate(3.967)"/>
      </g>
      <g id="Group_3887" data-name="Group 3887" transform="translate(189.783 0)">
        <path id="Path_3660" data-name="Path 3660" class="cls-4" d="M3.77,1.885A6.613,6.613,0,0,1-2.844,8.5,6.613,6.613,0,0,1-9.458,1.885,6.613,6.613,0,0,1-2.844-4.729,6.613,6.613,0,0,1,3.77,1.885" transform="translate(9.458 4.729)"/>
      </g>
      <g id="Group_3888" data-name="Group 3888" transform="translate(6.993 25.471)">
        <path id="Path_3661" data-name="Path 3661" class="cls-4" d="M2.989,1.495A5.245,5.245,0,0,1-2.255,6.739,5.245,5.245,0,0,1-7.5,1.495,5.245,5.245,0,0,1-2.255-3.75,5.245,5.245,0,0,1,2.989,1.495" transform="translate(7.5 3.75)"/>
      </g>
      <g id="Group_3889" data-name="Group 3889" transform="translate(11 166.005)">
        <path id="Path_3662" data-name="Path 3662" class="cls-4" d="M4.982,2.491a8.741,8.741,0,0,1-8.741,8.741A8.741,8.741,0,0,1-12.5,2.491,8.741,8.741,0,0,1-3.759-6.25,8.741,8.741,0,0,1,4.982,2.491" transform="translate(12.5 6.25)"/>
      </g>
      <g id="Group_3890" data-name="Group 3890" transform="translate(225.172 115.383)">
        <path id="Path_3663" data-name="Path 3663" class="cls-4" d="M2.392,1.2a4.2,4.2,0,0,1-4.2,4.2A4.2,4.2,0,0,1-6,1.2,4.2,4.2,0,0,1-1.8-3a4.2,4.2,0,0,1,4.2,4.2" transform="translate(6 3)"/>
      </g>
    </g>
  </g>
</svg>
