<svg xmlns="http://www.w3.org/2000/svg" viewBox="5024.52 2612 18.173 14.768">
  <defs>
    <style>
      .cls-1 {
        fill: #151313;
      }
    </style>
  </defs>
  <g id="Group_2987" data-name="Group 2987" transform="translate(5024.52 2612)">
    <path id="Path_2796" data-name="Path 2796" class="cls-1" d="M1.95.44c.009.16.011.319.011.482A10.535,10.535,0,0,1-8.647,11.53a10.544,10.544,0,0,1-5.714-1.675,7.909,7.909,0,0,0,.889.051,7.469,7.469,0,0,0,4.63-1.595,3.737,3.737,0,0,1-3.482-2.59,3.857,3.857,0,0,0,.7.067,3.77,3.77,0,0,0,.982-.131A3.734,3.734,0,0,1-13.632,2V1.955a3.717,3.717,0,0,0,1.689.466A3.725,3.725,0,0,1-13.6-.682a3.73,3.73,0,0,1,.5-1.875,10.584,10.584,0,0,0,7.685,3.9,3.8,3.8,0,0,1-.1-.85A3.726,3.726,0,0,1-1.779-3.238,3.72,3.72,0,0,1,.941-2.062,7.452,7.452,0,0,0,3.31-2.968,3.735,3.735,0,0,1,1.671-.905,7.432,7.432,0,0,0,3.812-1.49,7.556,7.556,0,0,1,1.95.44" transform="translate(14.361 3.238)"/>
  </g>
</svg>
