<svg xmlns="http://www.w3.org/2000/svg" viewBox="1219.655 5364.332 31.181 25.338">
  <defs>
    <style>
      .cls-1 {
        fill: #3bb5e5;
      }
    </style>
  </defs>
  <g id="Group_4915" data-name="Group 4915" transform="translate(557 422)">
    <path id="Path_3759" data-name="Path 3759" class="cls-1" d="M13.626,3.072c.016.275.019.548.019.826,0,8.454-6.433,18.2-18.2,18.2a18.091,18.091,0,0,1-9.8-2.874,13.57,13.57,0,0,0,1.526.088,12.816,12.816,0,0,0,7.943-2.736,6.411,6.411,0,0,1-5.975-4.443,6.618,6.618,0,0,0,1.2.115,6.469,6.469,0,0,0,1.686-.224A6.407,6.407,0,0,1-13.11,5.752v-.08a6.378,6.378,0,0,0,2.9.8,6.391,6.391,0,0,1-2.843-5.324,6.4,6.4,0,0,1,.863-3.217A18.16,18.16,0,0,0,.994,4.614,6.515,6.515,0,0,1,.83,3.156,6.4,6.4,0,0,1,11.893-1.221a12.786,12.786,0,0,0,4.065-1.553A6.409,6.409,0,0,1,13.146.765a12.752,12.752,0,0,0,3.673-1,12.964,12.964,0,0,1-3.194,3.311" transform="translate(677.016 4945.569)"/>
  </g>
</svg>
