<svg xmlns="http://www.w3.org/2000/svg" viewBox="1306.485 5361.75 31.181 30.5">
  <defs>
    <style>
      .cls-1 {
        fill: #ff3a2e;
      }
    </style>
  </defs>
  <g id="Group_4914" data-name="Group 4914" transform="translate(557 422)">
    <path id="Path_3760" data-name="Path 3760" class="cls-1" d="M.6,4.3a2.241,2.241,0,0,0,1.029-.283A3.678,3.678,0,0,0,2.656,3.2v.965H4.434V-4.527H2.656v6.6a2.477,2.477,0,0,1-.548.47,1.03,1.03,0,0,1-.495.181.429.429,0,0,1-.362-.14.719.719,0,0,1-.115-.444V-4.527H-.637V2.738A1.824,1.824,0,0,0-.325,3.9a1.115,1.115,0,0,0,.93.4" transform="translate(769.473 4947.369)"/>
    <path id="Path_3761" data-name="Path 3761" class="cls-1" d="M1.159,5.737h2V.85l2.329-6.9H3.455L2.216-1.335H2.091L.793-6.047H-1.222L1.159,1.068Z" transform="translate(756.613 4945.797)"/>
    <path id="Path_3762" data-name="Path 3762" class="cls-1" d="M.889,1.042a.579.579,0,0,1,.2-.46A.775.775,0,0,1,1.62.406a.869.869,0,0,1,.571.175.562.562,0,0,1,.216.46V5.777a.722.722,0,0,1-.214.552.8.8,0,0,1-.573.2.693.693,0,0,1-.54-.2.756.756,0,0,1-.191-.552Zm.737,6.992a2.709,2.709,0,0,0,1.9-.635,2.264,2.264,0,0,0,.688-1.752V1.157a2.092,2.092,0,0,0-.7-1.625A2.624,2.624,0,0,0,1.708-1.1,2.914,2.914,0,0,0-.222-.5,1.985,1.985,0,0,0-.937,1.106V5.614a2.307,2.307,0,0,0,.7,1.762,2.611,2.611,0,0,0,1.865.659" transform="translate(763.18 4943.721)"/>
    <path id="Path_3763" data-name="Path 3763" class="cls-1" d="M.322,0A.83.83,0,0,0-.014.076,1.153,1.153,0,0,0-.339.32V5.238a1.333,1.333,0,0,0,.376.277.883.883,0,0,0,.38.088.512.512,0,0,0,.427-.171.875.875,0,0,0,.134-.544V.815A.941.941,0,0,0,.813.2.609.609,0,0,0,.322,0" transform="translate(767.655 4960.247)"/>
    <path id="Path_3764" data-name="Path 3764" class="cls-1" d="M12.777,4.359H9.759V5.844a1.759,1.759,0,0,0,.154.867.594.594,0,0,0,.536.24.654.654,0,0,0,.55-.2,1.722,1.722,0,0,0,.156-.9V5.485h1.623v.4a2.529,2.529,0,0,1-.6,1.832,2.351,2.351,0,0,1-1.77.608,2.157,2.157,0,0,1-1.668-.651,2.516,2.516,0,0,1-.61-1.789V2.346A2.226,2.226,0,0,1,8.8.67,2.385,2.385,0,0,1,10.531.027a2.208,2.208,0,0,1,1.664.6,2.367,2.367,0,0,1,.583,1.721ZM7.305,6.487a1.953,1.953,0,0,1-.37,1.282,1.306,1.306,0,0,1-1.072.446,1.857,1.857,0,0,1-.824-.171,2.011,2.011,0,0,1-.674-.534v.606h-1.6v-10.7h1.6V.861A2.5,2.5,0,0,1,5.039.313,1.548,1.548,0,0,1,5.768.126a1.366,1.366,0,0,1,1.144.5,2.358,2.358,0,0,1,.394,1.477ZM1.584,8.116H.005V7.247a3.367,3.367,0,0,1-.91.731,1.9,1.9,0,0,1-.914.251.974.974,0,0,1-.826-.353,1.69,1.69,0,0,1-.277-1.054V.221h1.579V6.276a.663.663,0,0,0,.1.4.384.384,0,0,0,.324.127.889.889,0,0,0,.438-.164,2.238,2.238,0,0,0,.489-.427V.221H1.584Zm-5.2-9.144h-1.84V8.116H-7.233V-1.028H-9.071V-2.585h5.457ZM12.017-4.594H-7.773a5.7,5.7,0,0,0-5.694,5.7v4.58a5.7,5.7,0,0,0,5.694,5.7h19.79a5.7,5.7,0,0,0,5.7-5.7V1.1a5.7,5.7,0,0,0-5.7-5.7" transform="translate(762.952 4958.869)"/>
    <path id="Path_3765" data-name="Path 3765" class="cls-1" d="M.338,0A.623.623,0,0,0-.2.226,1.173,1.173,0,0,0-.356.935l.008.8,1.4-.016-.01-.8A1.177,1.177,0,0,0,.866.214.61.61,0,0,0,.338,0" transform="translate(773.068 4960.274)"/>
  </g>
</svg>
