<?xml version="1.0" encoding="utf-8"?>
<!-- Generator: Adobe Illustrator 16.0.0, SVG Export Plug-In . SVG Version: 6.00 Build 0)  -->
<!DOCTYPE svg PUBLIC "-//W3C//DTD SVG 1.1//EN" "http://www.w3.org/Graphics/SVG/1.1/DTD/svg11.dtd">
<svg version="1.1" id="Layer_1" xmlns="http://www.w3.org/2000/svg" xmlns:xlink="http://www.w3.org/1999/xlink" x="0px" y="0px"
	 width="851px" height="315px" viewBox="0 0 851 315" enable-background="new 0 0 851 315" xml:space="preserve">
<image overflow="visible" enable-background="new    " width="375" height="360" id="phyton" xlink:href="A4D5D7B9B26C4EAF.png"  transform="matrix(0.875 0 0 0.875 1598.5762 2280.5059)">
</image>
<g>
	<path fill="#004E6F" d="M611.708,130.551c-5.036,0-9.933,0.666-14.688,1.988c-2.243,0.627-4.346,1.429-6.325,2.391
		c-0.382-0.594-0.836-1.153-1.374-1.679c-1.865-1.802-4.104-2.701-6.715-2.701h-10.073v76.317h19.582v-39.621
		c0-7.707,1.306-10.708,3.921-13.375c2.611-2.649,6.622-3.977,12.036-3.977h8.449v-19.344H611.708z M254.163,108h-10.077v89.48
		c0,2.658,0.937,4.879,2.802,6.686c1.865,1.801,4.104,2.705,6.715,2.705h10.073v-89.485c0-2.649-0.933-4.875-2.793-6.685
		C259.013,108.903,256.774,108,254.163,108z M305.446,191.375c11.646,0,15.33-12.416,15.33-22.926
		c0-10.505-3.684-23.083-15.33-23.083c-11.65,0-15.186,12.578-15.186,23.083C290.261,178.959,293.796,191.375,305.446,191.375z
		 M305.468,128.701c22.091,0,34.338,14.808,34.338,39.502c0,24.593-12.248,39.358-34.338,39.358
		c-22.528,0-34.22-14.766-34.22-39.358C271.248,143.509,282.939,128.701,305.468,128.701z M204.195,191.375
		c-11.646,0-15.186-12.416-15.186-22.926c0-10.505,3.54-23.083,15.186-23.083c6.049,0,9.937,3.413,12.29,8.144h20.349
		c-4.087-15.754-15.342-24.809-32.618-24.809c-22.528,0-34.216,14.808-34.216,39.502c0,24.593,11.688,39.358,34.216,39.358
		c17.275,0,28.51-9.047,32.592-24.745h-13.346c0,0-3.59,0.098-5.613,2.039C214.331,188.234,211.465,191.375,204.195,191.375z
		 M409.497,133.315c-1.772-1.899-4.057-2.845-6.859-2.845h-9.793v47.821c0,4.553-1.353,7.871-4.057,9.957s-5.766,3.129-9.127,3.129
		c-3.353,0-6.418-1.043-9.123-3.129s-4.061-5.404-4.061-9.957V140.14c0-2.654-0.882-4.926-2.658-6.825
		c-1.768-1.899-4.053-2.845-6.855-2.845h-9.793v44.377c0,13.469,3.726,21.803,10.353,26.458c6.609,4.638,13.935,6.253,22.138,6.253
		c8.208,0,15.537-1.615,22.142-6.253c6.626-4.655,10.353-12.989,10.353-26.458V140.14
		C412.154,137.486,411.272,135.214,409.497,133.315z M486.816,110.702c-1.865-1.797-4.107-2.7-6.715-2.7h-9.822v28.293
		c-2.977-2.794-9.256-7.593-18.76-7.593c-19.997,0-31.558,14.804-31.558,39.499c0,24.596,11.874,39.357,34.763,39.357
		c22.35,0,34.783-14.643,34.881-39.049h0.009v-51.122C489.614,114.734,488.678,112.512,486.816,110.702z M454.703,191.377
		c-11.832,0-15.432-12.421-15.432-22.926c0-10.51,3.6-23.084,15.432-23.084c11.76,0,15.529,12.426,15.576,22.893v0.25
		C470.266,179.002,466.514,191.377,454.703,191.377z M565.316,163.759c0,1.628-0.338,3.116-1.008,4.46
		c-0.424,0.844-0.967,1.632-1.654,2.365c-1.775,1.895-3.963,2.845-6.574,2.845h-39.787c0.504,9.085,5.062,17.949,14.906,17.949
		c7.266,0,10.127-3.146,13.654-6.521c2.022-1.938,5.609-2.043,5.609-2.043h13.35c-4.092,15.698-15.321,24.745-32.602,24.745
		c-22.523,0-34.215-14.761-34.215-39.354c0-24.698,11.691-39.502,34.215-39.502c17.28,0,28.54,9.056,32.623,24.809
		c0.736,2.819,1.207,5.859,1.471,9.085L565.316,163.759z M531.199,145.368c-8.115,0-13.49,6.101-14.075,13.35h28.247
		C545.324,151.469,539.105,145.368,531.199,145.368z M682,149.841c0-6.762-2.705-12.023-8.114-15.783
		c-5.223-3.565-13.062-5.354-23.507-5.354c-9.331,0-16.513,2.162-21.549,6.482c-4.477,3.756-7.198,8.886-7.944,14.71h18.75
		c0.933-2.366,2.531-3.811,4.592-4.562c2.043-0.75,4.379-1.132,6.995-1.132c3.256,0,5.562,0.424,7.97,1.271
		c2.845,1,4.337,2.675,4.337,5.494c0,3.019-4.096,5.838-12.307,6.923c-9.87,1.302-17.661,2.382-24.758,7.682
		c-4.558,3.399-7.428,9.636-7.428,17.525c0,8.458,2.586,14.423,7.555,18.183c4.43,3.354,11.624,6.219,23.273,6.219
		c10.446,0,18.28-2.318,23.504-5.889c5.409-3.756,8.453-8.088,8.631-16.003V149.841z M660.964,186.947
		c-2.988,2.951-7.092,4.427-12.314,4.427c-1.624,0-6.767-0.369-8.903-2.454c-1.56-1.519-2.518-3.074-2.518-5.838
		c0-2.031,0.712-3.955,1.954-5.295c2.756-2.968,5.786-3.388,12.307-4.842c4.32-0.967,9.619-2.582,12.345-4.133v5.744
		C663.834,179.725,663.949,184.002,660.964,186.947L660.964,186.947z"/>
</g>
</svg>
