<?xml version="1.0" encoding="utf-8"?>
<!-- Generator: Adobe Illustrator 16.0.0, SVG Export Plug-In . SVG Version: 6.00 Build 0)  -->
<!DOCTYPE svg PUBLIC "-//W3C//DTD SVG 1.1//EN" "http://www.w3.org/Graphics/SVG/1.1/DTD/svg11.dtd">
<svg version="1.1" id="Layer_1" xmlns="http://www.w3.org/2000/svg" xmlns:xlink="http://www.w3.org/1999/xlink" x="0px" y="0px"
	 width="600px" height="600px" viewBox="0 0 600 600" enable-background="new 0 0 600 600" xml:space="preserve">
<g id="g3363" transform="matrix(1.25,0,0,-1.25,0,227.7875)">
	<g id="g3365" transform="scale(0.1,0.1)">
		<path id="path3367" fill="none" stroke="#1F3764" stroke-width="24" stroke-linecap="round" stroke-linejoin="round" d="
			M2757.523-411.7c0-212.234-172.039-384.25-384.242-384.25c-212.223,0-384.266,172.016-384.266,384.25
			c0,212.215,172.043,384.258,384.266,384.258C2585.484-27.442,2757.523-199.485,2757.523-411.7z"/>
		<path id="path3369" fill="none" stroke="#1F3764" stroke-width="24" stroke-linecap="round" stroke-linejoin="round" d="
			M3590.523-406.333c0-212.211-172.039-384.266-384.258-384.266S2822-618.543,2822-406.333c0,212.223,172.039,384.25,384.266,384.25
			C3418.484-22.083,3590.523-194.11,3590.523-406.333z"/>
		<path id="path3371" fill="none" stroke="#1F3764" stroke-width="24" stroke-linecap="round" stroke-linejoin="round" d="
			M1919.086-409.008c-0.031,0-13.789,13.637-30.566,30.297l-353.625,351.27c-212.223,0-384.266-172.043-384.266-384.258
			c0-212.234,172.043-384.25,384.266-384.25c0.898,0,0.898,0,0.898,0c0.984,0.055,1.789-19.25,1.789-42.898v-169.391
			c0-23.648,19.352-42.992,42.996-42.992h295.578c23.648,0,42.992,19.344,42.992,42.992v556.234
			C1919.148-428.356,1919.121-409.008,1919.086-409.008z"/>
		<path id="path3373" fill="none" stroke="#1F3764" stroke-width="24" stroke-linecap="round" stroke-linejoin="round" d="
			M983.16-151.063H822.805L895.684-78.2c-58.137,35.387-126.148,56.117-199.168,56.117c-212.219,0-384.262-172.027-384.262-384.25
			c0-117.438,52.832-222.398,135.863-292.906h116.727l-47.094-47.109c53.434-28.109,114.176-44.25,178.766-44.25
			c212.219,0,384.266,172.055,384.266,384.266C1080.781-308.215,1043.68-218.965,983.16-151.063L983.16-151.063z"/>
		<path id="path3375" fill="none" stroke="#1F3764" stroke-width="24" stroke-linecap="round" stroke-linejoin="round" d="
			M3660.469-435.891c0.039,0,13.805,13.637,30.578,30.305l353.602,351.266c212.219,0,384.265-172.047,384.265-384.258
			c0-212.23-172.047-384.254-384.265-384.254c-0.906,0-0.906,0-0.906,0c-0.969,0.07-1.773-19.219-1.773-42.859v-169.43
			c0-23.648-19.352-42.992-42.992-42.992h-295.594c-23.648,0-43,19.344-43,42.992v556.238
			C3660.383-455.235,3660.422-435.891,3660.469-435.891z"/>
	</g>
</g>
</svg>
